# xmcd
#
# Track frame offsets: 
#        300
#        32071
#        62857
#        81430
#        99862
#        121546
#        142711
#        161917
#        184077
#        202514
#        219202
#        244554
#        265724
#        287353
#        300715
#
# Disc length: 4224 seconds
#
# Revision: 0
# Processed by: cddbd v1.5.2PL0 Copyright (c) Steve Scherf et al.
# Submitted via: ExactAudioCopy v0.99pb3
#
DISCID=bb107c0f
DTITLE=Александр Розенбаум - Попутчики
DYEAR=2007
DGENRE=
TTITLE0=Серебряный кувшин
TTITLE1=Если было бы можно
TTITLE2=Шабес-гой
TTITLE3=В стиле Ренуара
TTITLE4=Здравствуй, Сержант
TTITLE5=Откинулся
TTITLE6=Чемоданчик
TTITLE7=Облака
TTITLE8=Очередь у магазина
TTITLE9=10 950 дней
TTITLE10=Серафимыч
TTITLE11=Если я сумею
TTITLE12=Попутчик
TTITLE13=Старая армия
TTITLE14=Истинно верую
EXTD=
EXTT0=
EXTT1=
EXTT2=
EXTT3=
EXTT4=
EXTT5=
EXTT6=
EXTT7=
EXTT8=
EXTT9=
EXTT10=
EXTT11=
EXTT12=
EXTT13=
EXTT14=
PLAYORDER=
